<svg id="Capa_1" data-name="Capa 1" xmlns="http://www.w3.org/2000/svg" viewBox="0 0 108 19"><defs><style>.cls-1{fill:#d9d4a8;}</style></defs><title>logoletra</title><path class="cls-1" d="M3.85,1.82V3c0,.18,0,.35,0,.51a1.38,1.38,0,0,1-.59,1.14A2.05,2.05,0,0,1,2.07,5a2.36,2.36,0,0,1-.9-.15A1.22,1.22,0,0,1,.69,4.5,1.62,1.62,0,0,1,.36,3.29V1.82A3.51,3.51,0,0,0,.25.68H1l0,.44c0,.1,0,.32,0,.65V3.05A2,2,0,0,0,1,4a1.13,1.13,0,0,0,1.07.57,1.54,1.54,0,0,0,.77-.19A.93.93,0,0,0,3.25,4,2.75,2.75,0,0,0,3.38,2.9V1.82A3.48,3.48,0,0,0,3.27.69h.66a5.56,5.56,0,0,0-.08,1.13"/><path class="cls-1" d="M9.21,1a3.6,3.6,0,0,0,0,.44c0,.12,0,.36,0,.72V3.8c0,.1,0,.22,0,.36,0,.31,0,.42.05.76H8.76a8.46,8.46,0,0,0-.52-.73L6.47,2,6,1.34v2.3a4.21,4.21,0,0,0,.14,1.21H5.47a2.67,2.67,0,0,0,0-.27,3.23,3.23,0,0,0,0-.43V1.82A3.67,3.67,0,0,0,5.44.69h.31l.53,0a5.65,5.65,0,0,0,.53.79l1.59,2,.34.42,0-.42V2.1A5.14,5.14,0,0,0,8.57.69h.68a2.64,2.64,0,0,0,0,.26"/><path class="cls-1" d="M11.47,4.84h-.6l0-.27a4.74,4.74,0,0,0,0-.87V1.82A3.76,3.76,0,0,0,10.82.68h.73l0,.44c0,.1,0,.32,0,.65v2a3.7,3.7,0,0,0,.12,1.13Z"/><path class="cls-1" d="M16.51,1l-.16.34-.17.37-1,2.44a3.28,3.28,0,0,0-.26.8h-.54a2.25,2.25,0,0,0-.15-.57l-1-2.64a5.43,5.43,0,0,0-.48-1h.83c0,.11,0,.19,0,.25a5.49,5.49,0,0,0,.23.75L14.5,3.6l.21.66L15,3.55l.65-1.69a2.76,2.76,0,0,0,.24-.93.65.65,0,0,0,0-.24h.81v0c-.07.13-.13.22-.15.29"/><path class="cls-1" d="M20.31,4.43l-.05.23,0,.22H17.86l0-.27a4.81,4.81,0,0,0,0-.87V1.82A3.7,3.7,0,0,0,17.83.69H19c.68,0,.74,0,1.14,0L20,.87,20,1.12l0,.15h-.07a.53.53,0,0,0-.3-.2A2.1,2.1,0,0,0,19,1l-.44,0,0,.72v.71h.79a6.37,6.37,0,0,0,.65,0l.05,0-.08.19-.08.2-.27,0-.59,0H18.5v.9c0,.07,0,.16,0,.27s0,.31.11.38.23.13.58.13a3,3,0,0,0,.56,0A.93.93,0,0,0,20,4.41a.89.89,0,0,0,.29-.2l.08,0Z"/><path class="cls-1" d="M24.92,4.86h-.61l-.25,0L24,4.78l-.08-.14-.13-.22c-.25-.41-.52-.78-.83-1.23a4,4,0,0,0-.53-.62A1.79,1.79,0,0,0,23,2.5a.8.8,0,0,0,.46-.77.73.73,0,0,0-.8-.76,3,3,0,0,0-.42,0c0,.25,0,.31,0,.77v2a3.7,3.7,0,0,0,.12,1.13h-.76a5.68,5.68,0,0,0,.08-1.14V1.82A3.67,3.67,0,0,0,21.58.69h.31l.57,0h.42a1.24,1.24,0,0,1,.9.21.93.93,0,0,1,.31.72,1,1,0,0,1-.24.68,2.09,2.09,0,0,1-.59.4l.14.19.57.81a7.5,7.5,0,0,0,.71.9,2,2,0,0,0,.26.22Z"/><path class="cls-1" d="M26.85,5h-.23A2.14,2.14,0,0,1,26,4.83L26,4.62l.07-.27,0-.15.08,0a.83.83,0,0,0,.28.31,1,1,0,0,0,.54.16.78.78,0,0,0,.84-.75.73.73,0,0,0-.15-.45A2,2,0,0,0,27.07,3a2.68,2.68,0,0,1-.78-.51A1,1,0,0,1,26,1.74C26,1,26.57.55,27.42.55h.22a2.35,2.35,0,0,1,.66.15l-.07.17-.09.28,0,.13H28a.86.86,0,0,0-.78-.4.65.65,0,0,0-.74.64.61.61,0,0,0,.2.46,3.32,3.32,0,0,0,.67.42,2.19,2.19,0,0,1,.8.57,1.06,1.06,0,0,1,.22.66A1.41,1.41,0,0,1,26.85,5"/><path class="cls-1" d="M30.35,4.84h-.6l0-.27a4.73,4.73,0,0,0,0-.87V1.82A3.76,3.76,0,0,0,29.71.68h.73l0,.44c0,.1,0,.32,0,.65v2a3.7,3.7,0,0,0,.12,1.13Z"/><path class="cls-1" d="M35.14,4.36a2.51,2.51,0,0,1-1.71.5l-.75,0h-.6l0-.27a4.73,4.73,0,0,0,0-.87V1.84A3.81,3.81,0,0,0,32,.69h2a2.28,2.28,0,0,1,1.05.21,1.83,1.83,0,0,1,.89,1.69,2.21,2.21,0,0,1-.81,1.76M34.9,1.47A1.64,1.64,0,0,0,33.5,1l-.76,0,0,.72V3.71c0,.08,0,.17,0,.28s0,.31.11.38a.35.35,0,0,0,.15.09,2.43,2.43,0,0,0,.57.05,1.63,1.63,0,0,0,1.76-1.77,1.9,1.9,0,0,0-.42-1.27"/><path class="cls-1" d="M40.37,4.84H40l-.26,0,0-.25a5.22,5.22,0,0,0-.22-.72l-.2-.59h-1.5l-.2.54a2.36,2.36,0,0,0-.17.74.86.86,0,0,0,0,.28h-.76l0,0,.14-.27L37,4.21l.16-.37,1-2.44a4.26,4.26,0,0,0,.25-.75l.13,0,.26,0,.13,0a3.69,3.69,0,0,0,.19.61l1,2.64a7.81,7.81,0,0,0,.35.78,2.53,2.53,0,0,0,.14.26ZM38.55,1.23,37.9,2.95h1.24Z"/><path class="cls-1" d="M44.83,4.36a2.52,2.52,0,0,1-1.71.5l-.75,0h-.61l0-.27a4.74,4.74,0,0,0,0-.87V1.84A3.84,3.84,0,0,0,41.73.69h2a2.28,2.28,0,0,1,1.05.21,1.83,1.83,0,0,1,.89,1.69,2.21,2.21,0,0,1-.81,1.76m-.24-2.88A1.65,1.65,0,0,0,43.19,1l-.76,0,0,.72V3.71c0,.08,0,.17,0,.28s0,.31.11.38a.35.35,0,0,0,.15.09,2.44,2.44,0,0,0,.57.05A1.63,1.63,0,0,0,45,2.74a1.91,1.91,0,0,0-.42-1.27"/><path class="cls-1" d="M1.07,16.34A3.48,3.48,0,0,0,3,17c.66,0,1.32-.23,1.32-.88,0-1.54-3.66-1.35-3.66-4A2.56,2.56,0,0,1,3.54,9.69a5,5,0,0,1,2.17.45v1.6a4.77,4.77,0,0,0-2.11-.56c-.55,0-1,.2-1,.79,0,1.45,3.66,1.25,3.66,4,0,1.56-1.36,2.52-3.15,2.52a4.65,4.65,0,0,1-2.68-.78Z"/><path class="cls-1" d="M8.25,16.86a3.77,3.77,0,0,1-.38-1.76V9.78H9.64V15a2.45,2.45,0,0,0,.25,1.13,1.74,1.74,0,0,0,1.66.86,1.73,1.73,0,0,0,1.65-.86A2.32,2.32,0,0,0,13.45,15V9.78h1.78v5.32a3.79,3.79,0,0,1-.38,1.76c-.56,1.09-1.73,1.6-3.31,1.6s-2.74-.51-3.29-1.6"/><path class="cls-1" d="M17.36,9.78h2.55a4.25,4.25,0,0,1,1.79.32,2.19,2.19,0,0,1,1.36,2.15,2.24,2.24,0,0,1-1.66,2.19v0a4,4,0,0,1,1.09,1.4l1.39,2.45h-2l-1.13-2c-.43-.8-.73-1.13-.93-1.18h-.65v3.23H17.36Zm2.44,3.88a1.72,1.72,0,0,0,.86-.18,1.17,1.17,0,0,0,.57-1,1.12,1.12,0,0,0-.58-1,1.55,1.55,0,0,0-.83-.18h-.67v2.44Z"/><path class="cls-1" d="M31.91,17.75a5.76,5.76,0,0,1-2.84.7,4,4,0,0,1-4.4-4.32,4.37,4.37,0,0,1,4.62-4.45,5.72,5.72,0,0,1,2.28.42v1.63a4.71,4.71,0,0,0-2.24-.56,2.68,2.68,0,0,0-2.76,2.93A2.64,2.64,0,0,0,29.29,17a4,4,0,0,0,2.13-.62Z"/><path class="cls-1" d="M32.83,14.07a4.17,4.17,0,0,1,4.36-4.38,4.18,4.18,0,0,1,4.36,4.38,4.17,4.17,0,0,1-4.36,4.38,4.17,4.17,0,0,1-4.36-4.38m6.82,0c0-1.85-1-2.89-2.46-2.89s-2.46,1-2.46,2.89,1,2.9,2.46,2.9,2.46-1,2.46-2.9"/><polygon class="cls-1" points="43.32 9.78 45.09 9.78 45.09 16.82 48.08 16.82 48.08 18.32 43.32 18.32 43.32 9.78"/><path class="cls-1" d="M48.82,14.07a4.36,4.36,0,1,1,8.71,0,4.36,4.36,0,1,1-8.71,0m6.82,0c0-1.85-1-2.89-2.46-2.89s-2.46,1-2.46,2.89,1,2.9,2.46,2.9,2.46-1,2.46-2.9"/><path class="cls-1" d="M59.3,9.78h1.61l2.19,3.1c.29.4.49.73.69,1.06h0c.17-.32.39-.69.66-1.12l2-3h1.62v8.55H66.31V13.73c0-.34,0-.73,0-1h0c-.1.22-.44.71-.58.93L64.19,16h-.8l-1.72-2.44a7.79,7.79,0,0,1-.57-.84h0c0,.3,0,.69,0,1v4.64H59.3Z"/><path class="cls-1" d="M70.29,9.78H73c1.85,0,2.68,1.08,2.68,2.17a1.91,1.91,0,0,1-1,1.73v0a2.07,2.07,0,0,1,1.6,2.06c0,1.3-1,2.57-3,2.57H70.29Zm2.45,3.49c.78,0,1.18-.44,1.18-1s-.39-1-1.22-1h-.64v2ZM73,16.87c1,0,1.48-.34,1.48-1.12s-.49-1-1.31-1H72.06v2.15Z"/><rect class="cls-1" x="77.96" y="9.78" width="1.78" height="8.55"/><path class="cls-1" d="M84.27,9.74H85.7l3.49,8.59H87.29l-.83-2.09h-2.9l-.79,2.09H80.93Zm1.66,5.07-.51-1.44c-.21-.62-.31-1-.39-1.27h0a10.2,10.2,0,0,1-.43,1.28l-.52,1.43Z"/><path class="cls-1" d="M96.64,18.32l-3.58-4.68c-.31-.41-.58-.8-.88-1.18h0c0,.31,0,.84,0,1.26v4.6H90.41V9.78h1.78l3.44,4.5c.34.43.61.8.87,1.18h0c0-.45,0-1,0-1.43V9.78h1.78v8.55Z"/><path class="cls-1" d="M102.82,9.74h1.44l3.49,8.59h-1.91L105,16.24h-2.9l-.79,2.09H99.49Zm1.66,5.07L104,13.37c-.21-.62-.31-1-.39-1.27h0a10.06,10.06,0,0,1-.43,1.28l-.52,1.43Z"/></svg>