<svg id="Capa_1" data-name="Capa 1" xmlns="http://www.w3.org/2000/svg" viewBox="0 0 40 42"><defs><style>.cls-1{fill:#d9d4a8;}.cls-2{fill:#77181c;}</style></defs><title>logosolo</title><path class="cls-1" d="M20.63,41.83H19.37a33.32,33.32,0,0,1-6.32-.62A21.75,21.75,0,0,1,4.36,37.8l-.14-.09,0,0c-.13-.09-.32-.22-.53-.39a4.38,4.38,0,0,1-.55-.53,4,4,0,0,1-.73-1.23,4.6,4.6,0,0,1-.28-1.64V9.82l-.6-.33A2.64,2.64,0,0,1,.92,9,2.43,2.43,0,0,1,.2,7.31V4.63A1.71,1.71,0,0,1,2,2.76h8.68A18.9,18.9,0,0,1,19.9.17h.2a18.91,18.91,0,0,1,9.22,2.6H38a1.71,1.71,0,0,1,1.8,1.87V7.31A2.44,2.44,0,0,1,39.08,9a2.62,2.62,0,0,1-.58.44l-.6.33V33.89a4.59,4.59,0,0,1-.28,1.64,4,4,0,0,1-.73,1.23,4.47,4.47,0,0,1-.55.53c-.21.17-.39.3-.53.39l0,0-.14.09h0a21.75,21.75,0,0,1-8.69,3.41,33.32,33.32,0,0,1-6.32.62"/><path class="cls-2" d="M28.22,5.37V7.18a.47.47,0,0,0,.25.35c1.3.73,1.57.89,1.57,1.23V31c0,.75-.28,1-.83,1.22A20.76,20.76,0,0,1,20,34.14a20.76,20.76,0,0,1-9.17-1.95C10.3,31.93,10,31.72,10,31V8.76c0-.34.26-.51,1.54-1.23a.44.44,0,0,0,.28-.39V5.41c0-.24-.13-.66-.53-.66H2.89c-.39,0-.53.29-.53.66V7.18c0,.22.24.29.35.35,1.21.68,1.45.9,1.45,1.23V33.63c0,1.43.45,1.84,1,2.21C10.87,40,20,39.59,20,39.59s8.72.43,14.47-3.75a2.41,2.41,0,0,0,1.4-2.21V8.76c0-.34.35-.49,1.67-1.23a.4.4,0,0,0,.23-.35V5.37a.62.62,0,0,0-.56-.64H28.78a.62.62,0,0,0-.56.64"/><path class="cls-2" d="M15.48,15.7a4.22,4.22,0,0,1-2-2.51,3.78,3.78,0,0,1-.14-1.42l.21,0a3.93,3.93,0,0,0,2,3.71Z"/><path class="cls-2" d="M26,14.4l-.18-.13a3.78,3.78,0,0,0,.67-2.54l.21,0A3.94,3.94,0,0,1,26,14.4"/><path class="cls-2" d="M20.85,31.9a4.76,4.76,0,0,1-2.12-.47v.12a.16.16,0,0,1-.16.16H14.14a.16.16,0,0,1-.16-.16V24.71a.16.16,0,0,1,.16-.16H17.5l-1.45-1.12A5.18,5.18,0,0,1,14,19.57,5.25,5.25,0,0,1,16,15.08a5.55,5.55,0,0,1,3.15-1,4.74,4.74,0,0,1,2.12.48v-.12a.16.16,0,0,1,.16-.16h4.43a.16.16,0,0,1,.16.16v6.83a.16.16,0,0,1-.16.16H22.54L24,22.51a5.15,5.15,0,0,1,2.08,3.86A5.24,5.24,0,0,1,24,30.89a5.61,5.61,0,0,1-3.14,1M18.56,31l.08,0a4.32,4.32,0,0,0,2.21.56,5.27,5.27,0,0,0,3-.94,4.93,4.93,0,0,0,1.94-4.26,4.82,4.82,0,0,0-2-3.6L22,21.35a.16.16,0,0,1,.1-.29h3.68V14.56h-4.1v.23a.16.16,0,0,1-.24.14,4.33,4.33,0,0,0-2.21-.56,5.22,5.22,0,0,0-3,1,4.93,4.93,0,0,0-1.94,4.23,4.86,4.86,0,0,0,2,3.6c.57.45,1.82,1.4,1.83,1.41a.16.16,0,0,1,.06.18.16.16,0,0,1-.15.11H14.3v6.51h4.1v-.23a.16.16,0,0,1,.08-.14l.08,0"/><path class="cls-2" d="M20.85,30.79a3.59,3.59,0,0,1-2.21-.71l-.1-.07c-.22-.16-.33-.23-.55-.21a.36.36,0,0,0-.37.38v.31a.1.1,0,0,1-.1.1H15.18a.1.1,0,0,1-.1-.1V25.75a.1.1,0,0,1,.1-.1h3.44l.06,0s.84.68,1.1.88l.05,0a1,1,0,0,0,.55.25.63.63,0,0,0,.47-.25.6.6,0,0,0,.18-.45.72.72,0,0,0-.27-.48l-4-3.07a4,4,0,0,1-1.7-3,4.1,4.1,0,0,1,4.12-4.43,3.59,3.59,0,0,1,2.21.71l.1.07a.71.71,0,0,0,.55.21.36.36,0,0,0,.37-.38v-.31a.1.1,0,0,1,.1-.1h2.35a.1.1,0,0,1,.1.1v4.75a.1.1,0,0,1-.1.1H21.43l-.06,0s-.84-.68-1.1-.88l-.06,0a1,1,0,0,0-.54-.25.63.63,0,0,0-.47.25.6.6,0,0,0-.18.45.72.72,0,0,0,.27.48l4,3.07a3.91,3.91,0,0,1,1.7,3A4.19,4.19,0,0,1,23.35,30a4.46,4.46,0,0,1-2.5.8"/><path class="cls-2" d="M20,14.19a9.93,9.93,0,0,1-5-1.22,5.47,5.47,0,0,1-1.53-1.24l.17-.13S15.44,14,20,14a9.71,9.71,0,0,0,4.92-1.19,5.38,5.38,0,0,0,1.48-1.19l.17.13A5.47,5.47,0,0,1,25,13a9.93,9.93,0,0,1-5,1.22"/><path class="cls-2" d="M27.83,29.14c0-.17,0-.5,0-1,0-1.09,0-2.83,0-4.76V23.3c0-.73,0-1.91,0-2.66.62-.36,2-1.9-.07-7.38a3.73,3.73,0,0,0-.83-1.47,1.7,1.7,0,0,0,.69-.67,5.34,5.34,0,0,0,.54-1.85c0-.09,0-.16,0-.21a.64.64,0,0,0-.44-.85L27.2,8V5.37c0-.51,0-.56.2-.7l.12-.11a.62.62,0,0,0,.2-.56c0-.17-.16-.4-.58-.58a18.29,18.29,0,0,0-7-1.49H19.9a18.28,18.28,0,0,0-6.95,1.49c-.42.18-.55.42-.58.58a.62.62,0,0,0,.2.56l.11.1c.16.15.2.19.2.71V8l-.54.23a.64.64,0,0,0-.44.85s0,.12,0,.21a5.33,5.33,0,0,0,.54,1.85,1.64,1.64,0,0,0,.63.67,4.27,4.27,0,0,0-.8,1.4c-1.7,4.52-1.16,6.85-.06,7.47,0,2.77,0,6,0,7.53,0,.45,0,.78,0,1a1.62,1.62,0,0,0-.43.86,1.1,1.1,0,0,0,.3,1c.68.68,5.2,1.59,7.92,1.59S27.28,31.67,28,31a1.1,1.1,0,0,0,.3-1,1.64,1.64,0,0,0-.43-.86M27.61,8.5c.27.11.31.19.25.49,0,0,0,.13,0,.23a5.06,5.06,0,0,1-.5,1.74,1.56,1.56,0,0,1-.34.4c-.09.08-.36.21-.39-.27a2.21,2.21,0,0,1,.14-.94,5.7,5.7,0,0,0,.45-1.82ZM24,6.85a2.54,2.54,0,0,0-2.21,1A3,3,0,0,1,20,8.46a3.07,3.07,0,0,1-1.77-.62,2.53,2.53,0,0,0-2.17-1,2.9,2.9,0,0,0-2.68,2.31,6,6,0,0,1-.17-1L13.69,8a.1.1,0,0,0,.07-.09V7.11a20.7,20.7,0,0,1,4.47-1,.1.1,0,0,0,.09-.1V5.74h3.24V6a.1.1,0,0,0,.09.1,22.53,22.53,0,0,1,4.69,1v.71A.1.1,0,0,0,26.4,8l.48.17a3.89,3.89,0,0,1-.16,1.09A3,3,0,0,0,24,6.85m1.63,1a1.76,1.76,0,0,1-1.81.8,1.57,1.57,0,0,1-1-.61c-.22-.29-.15-.55-.09-.58A2.22,2.22,0,0,1,24,7.18a2.41,2.41,0,0,1,1.65.71m-4.26,1a3.39,3.39,0,0,1,1.38,1c0,.07-.11.21-.22.18a1,1,0,0,0-1.15.27h0a1.83,1.83,0,0,1-1.31.46,2,2,0,0,1-1.36-.47A1.31,1.31,0,0,0,17.45,10c-.14,0-.28-.08-.2-.19a3.4,3.4,0,0,1,1.44-1,.16.16,0,0,0,.09-.2,2.1,2.1,0,0,1-.26-.39,3.12,3.12,0,0,0,1.49.4h.08a3,3,0,0,0,1.43-.37,1.68,1.68,0,0,1-.25.36.16.16,0,0,0,.09.2m-4-.83a1.6,1.6,0,0,1-1.07.67,1.77,1.77,0,0,1-1.82-.82,2.37,2.37,0,0,1,1.62-.7,2.29,2.29,0,0,1,1.27.31c.12.07.16.3,0,.53M13.2,5.31a23.57,23.57,0,0,1,3.53-1l0,0A6.15,6.15,0,0,0,20,5.24a6.14,6.14,0,0,0,3.26-.91l0,0a24,24,0,0,1,3.55,1V7.92l-.34-.12V7.08A.1.1,0,0,0,26.47,7a22.23,22.23,0,0,0-4.71-1.07V5.64a.1.1,0,0,0-.1-.1H18.22a.1.1,0,0,0-.1.1v.28a20.21,20.21,0,0,0-4.49,1,.1.1,0,0,0-.06.09V7.8l-.36.12V5.31m-.41-1a.32.32,0,0,1-.11-.27c0-.13.16-.25.39-.35A18.24,18.24,0,0,1,19.9,2.24h.29A18.24,18.24,0,0,1,27,3.71c.23.1.37.22.39.35a.32.32,0,0,1-.11.27l-.11.1a.74.74,0,0,0-.29.54,23.72,23.72,0,0,0-3.57-1h0c-.05,0-.09,0-.18.08A5.83,5.83,0,0,1,20,4.92a5.83,5.83,0,0,1-3.09-.86C16.83,4,16.8,4,16.73,4a23,23,0,0,0-3.55,1,.74.74,0,0,0-.29-.55l-.1-.09m.13,6.89a2.18,2.18,0,0,1-.18-.26,5.06,5.06,0,0,1-.5-1.74c0-.1,0-.18,0-.23-.06-.29,0-.36.25-.49l.43-.18a7.08,7.08,0,0,0,.45,1.83,2.08,2.08,0,0,1,.08.94c0,.39-.37.29-.5.12M27.73,30.76c-.52.52-4.78,1.49-7.69,1.49a26.07,26.07,0,0,1-5.46-.71h-.49v-.12a5.22,5.22,0,0,1-1.74-.66.77.77,0,0,1-.21-.68,1.24,1.24,0,0,1,.35-.71h0a15,15,0,0,0,1.6.56v-.21a14.66,14.66,0,0,1-1.51-.53c0-.15,0-.5,0-1,0-.87,0-2.2,0-3.71l1.52.31v-.07l.73,0c-.89-.15-1.9-.32-2.25-.4,0-.26,0-.53,0-.8a29.45,29.45,0,0,0,4.48.76l.63.48h.26l-1.66-1.28a.16.16,0,0,0,0,.22l.45.35a28.3,28.3,0,0,1-4.16-.73h0c0-.67,0-1.37,0-2.06a4.46,4.46,0,0,1,1.85-.26c.05,0,.09,0,.12,0s-.08-.15-.12-.24v-.09a4.31,4.31,0,0,1-2-.21c-.54-.23-1-1-.92-2.7a10.69,10.69,0,0,1,.26-1.84h0a20,20,0,0,1,.79-2.56A3.78,3.78,0,0,1,13.35,12l.26-.3a2.86,2.86,0,0,0,0-1.67l-.06-.17A3.25,3.25,0,0,1,14.33,8,2,2,0,0,0,16,8.87l.33,0a1.86,1.86,0,0,0,1.4-1.11,2.7,2.7,0,0,1,.72.87A4,4,0,0,0,16.9,9.75h0s-.12.18,0,.31h0c0,.06.36.43,1.62.52a2.33,2.33,0,0,0,1.54.53,2.16,2.16,0,0,0,1.5-.53c1.28-.1,1.5-.49,1.54-.54a.26.26,0,0,0,0-.29,4,4,0,0,0-1.45-1.14,2.67,2.67,0,0,1,.75-.89,1.86,1.86,0,0,0,1.41,1.13l.33,0A2,2,0,0,0,25.73,8a3.31,3.31,0,0,1,.77,1.85h0l-.06.17a2.64,2.64,0,0,0,0,1.67l.52.59a4.31,4.31,0,0,1,.53,1.09,20.45,20.45,0,0,1,.86,2.87,14.9,14.9,0,0,1,.21,1.58c.06,1.44-.37,2.34-.91,2.57a3.94,3.94,0,0,1-1.72.24h0v.07h0c0,.09-.11.16,0,.16a2.87,2.87,0,0,1,1.67.34c0,.73,0,1.42,0,2.13a21.61,21.61,0,0,1-2.51.49l.12.18c.72-.11,1.44-.25,2.08-.4.25-.06.3.05.3.34s0,.32-.27.37c-.41.08-1.09.23-1.75.34l.08.19c.8-.14,1.63-.32,1.94-.38,0,1.5,0,2.83,0,3.72,0,.5,0,.85,0,1a17.67,17.67,0,0,1-2.88.87l-.23.25a18.08,18.08,0,0,0,3.2-.95h0a1.24,1.24,0,0,1,.35.71.77.77,0,0,1-.21.68M22.65,11.44h-.08a17,17,0,0,1-2.6.18,17,17,0,0,1-2.6-.18H17.3a.82.82,0,0,0-.71.58.79.79,0,0,0,.13.71.68.68,0,0,0,.53.31H22.7a.68.68,0,0,0,.53-.31.8.8,0,0,0,.13-.71.82.82,0,0,0-.71-.58m-.23.33.21,0a.35.35,0,0,1,.35.19s0,.1-.17.14l-.49.07Zm-3.95.1c.7,0,1.51.05,1.51.05s.8,0,1.51-.05l.14.32c-.49,0-1.08.06-1.65.06s-1.16,0-1.65-.06Zm-1.5,0a.35.35,0,0,1,.35-.19l.21,0,.09.36-.49-.07C17,12,17,12,17,11.93m.28.83a.41.41,0,0,1-.29-.19.59.59,0,0,1-.1-.21c0-.11.06-.14.19-.12l.62.09.11.43Zm.64-.29-.17-.66.55.06-.27.6c0,.1-.09.13-.12,0m2.09.29h-1.9l.17-.38h0c.51,0,1.13.06,1.73.06s1.21,0,1.73-.06h0l.17.38Zm2-.29-.27-.6.56-.06-.16.66c0,.13-.08.1-.12,0m1,.1a.41.41,0,0,1-.29.19h-.53l.11-.43.62-.09c.13,0,.22,0,.19.12a.56.56,0,0,1-.1.21"/></svg>